<svg width="100" height="27" viewBox="0 0 100 27" fill="none" xmlns="http://www.w3.org/2000/svg"><path d="M15.39 12.58c.02-1.76.95-3.4 2.45-4.32a5.27 5.27 0 0 0-4.15-2.24c-1.75-.18-3.44 1.04-4.33 1.04-.9 0-2.28-1.02-3.75-1A5.53 5.53 0 0 0 .96 8.9c-2.02 3.49-.52 8.6 1.41 11.42.96 1.38 2.1 2.92 3.56 2.86 1.45-.06 1.99-.92 3.73-.92 1.72 0 2.23.92 3.73.89 1.55-.03 2.52-1.39 3.45-2.78a11.4 11.4 0 0 0 1.58-3.22 4.97 4.97 0 0 1-3.03-4.57ZM12.38 3.63A5.07 5.07 0 0 0 13.54 0a5.16 5.16 0 0 0-3.34 1.73 4.82 4.82 0 0 0-1.19 3.5c1.3 0 2.55-.58 3.37-1.6Z" fill="#fff"/><path fill-rule="evenodd" clip-rule="evenodd" d="M27.14 19.06h4.73l1.14 3.36h2.04L30.57 10h-2.09L24 22.42h2l1.14-3.36Zm4.24-1.55h-3.75l1.85-5.45h.05l1.85 5.45ZM41.75 23.24c2.27 0 3.78-1.8 3.78-4.62 0-2.8-1.52-4.62-3.81-4.62a3.21 3.21 0 0 0-2.89 1.6h-.03v-1.5H37v12.04h1.86v-4.48h.04a3.07 3.07 0 0 0 2.85 1.58Zm-.52-7.65c1.44 0 2.39 1.2 2.39 3.03 0 1.85-.95 3.05-2.4 3.05-1.41 0-2.37-1.22-2.37-3.05 0-1.8.96-3.04 2.38-3.04ZM51.75 23.24c2.27 0 3.78-1.8 3.78-4.62 0-2.8-1.52-4.62-3.81-4.62a3.21 3.21 0 0 0-2.89 1.6h-.03v-1.5H47v12.04h1.86v-4.48h.04a3.07 3.07 0 0 0 2.85 1.58Zm-.52-7.65c1.44 0 2.39 1.2 2.39 3.03 0 1.85-.95 3.05-2.4 3.05-1.41 0-2.37-1.22-2.37-3.05 0-1.8.96-3.04 2.38-3.04Z" fill="#fff"/><path d="M61.9 19.16c.14 1.24 1.34 2.04 2.97 2.04 1.57 0 2.7-.8 2.7-1.91 0-.97-.69-1.55-2.3-1.94l-1.6-.39c-2.28-.55-3.34-1.62-3.34-3.35 0-2.14 1.86-3.61 4.51-3.61 2.63 0 4.43 1.47 4.49 3.61h-1.88c-.1-1.24-1.13-1.98-2.63-1.98s-2.52.75-2.52 1.86c0 .87.65 1.39 2.25 1.79l1.37.33c2.55.6 3.6 1.63 3.6 3.44 0 2.33-1.84 3.78-4.79 3.78-2.75 0-4.61-1.42-4.73-3.67h1.9ZM73.18 12v2.14h1.73v1.47h-1.73v5c0 .77.35 1.13 1.1 1.13.21 0 .41-.02.62-.04v1.46c-.34.07-.69.1-1.04.09-1.83 0-2.54-.7-2.54-2.45v-5.19H70v-1.47h1.32V12h1.86Z" fill="#fff"/><path fill-rule="evenodd" clip-rule="evenodd" d="M80.3 14c-2.62 0-4.3 1.79-4.3 4.64 0 2.85 1.66 4.64 4.3 4.64 2.63 0 4.29-1.79 4.29-4.64 0-2.85-1.67-4.64-4.3-4.64Zm0 1.53c1.5 0 2.4 1.15 2.4 3.1 0 1.97-.9 3.11-2.4 3.11-1.51 0-2.4-1.14-2.4-3.1 0-1.95.89-3.1 2.4-3.1Z" fill="#fff"/><path d="M86 14.1h1.77v1.54h.05c.24-1 1.15-1.68 2.17-1.64.22 0 .43.02.64.07v1.74a2.6 2.6 0 0 0-.84-.11 1.87 1.87 0 0 0-1.93 2.08v5.37H86V14.1Z" fill="#fff"/><path fill-rule="evenodd" clip-rule="evenodd" d="M95.27 23.28c2.05 0 3.65-1.13 3.9-2.77H97.4a2.05 2.05 0 0 1-2.09 1.27 2.36 2.36 0 0 1-2.43-2.57v-.1h6.4v-.64c-.01-2.75-1.58-4.47-4.09-4.47-2.55 0-4.19 1.84-4.19 4.68 0 2.83 1.63 4.6 4.27 4.6Zm2.14-5.48h-4.53a2.3 2.3 0 0 1 2.31-2.3 2.18 2.18 0 0 1 2.22 2.3Z" fill="#fff"/><path d="M26.39 3.68h.8a1 1 0 0 0 1.12-.95c0-.55-.41-.9-1.11-.9a1.06 1.06 0 0 0-1.2.93h-.88a1.87 1.87 0 0 1 2.1-1.74c1.18 0 2 .65 2 1.6.01.65-.44 1.22-1.08 1.36v.08c.77.03 1.36.67 1.33 1.44a2 2 0 0 1-2.23 1.77A1.98 1.98 0 0 1 25 5.51h.89c.05.57.58.94 1.35.94.77 0 1.28-.42 1.28-1 0-.6-.48-.96-1.3-.96h-.83v-.8Z" fill="#fff"/><path fill-rule="evenodd" clip-rule="evenodd" d="M32.67 3.97C31.6 4.04 31 4.51 31 5.32a1.36 1.36 0 0 0 1.5 1.34c.55.03 1.06-.24 1.35-.7h.07v.63h.86V3.51c0-.95-.64-1.51-1.77-1.51-1.02 0-1.75.5-1.84 1.27h.86c.1-.32.45-.5.94-.5.61 0 .92.27.92.74v.4l-1.22.06Zm1.22.58v.38a1.06 1.06 0 0 1-1.16.99c-.48 0-.84-.24-.84-.65 0-.4.28-.6.9-.64l1.1-.08Z" fill="#fff"/><path d="M36.89 2.75V6.5H36V2h2.96v.75H36.9Z" fill="#fff"/><path fill-rule="evenodd" clip-rule="evenodd" d="M42.34 6.65c1.14 0 1.87-.9 1.87-2.33C44.2 2.9 43.48 2 42.34 2c-.6-.01-1.14.3-1.42.82h-.06v-.75H40v6h.89V5.9h.07c.27.5.81.8 1.38.75ZM42.1 2.8c.75 0 1.2.57 1.2 1.52 0 .96-.45 1.53-1.2 1.53s-1.22-.58-1.22-1.52c0-.94.47-1.53 1.22-1.53Z" fill="#fff"/><path d="M45.46 8.12v-.77l.29.02c.4.03.74-.24.81-.63l.07-.22L45 2h.97l1.13 3.58h.07L48.29 2h.94l-1.67 4.69c-.39 1.1-.81 1.45-1.73 1.45l-.37-.02ZM50 5.33h.88c.1.4.46.6.98.6.6 0 .96-.26.96-.67 0-.43-.33-.64-.96-.64h-.67v-.69h.66c.54 0 .81-.2.81-.58 0-.33-.26-.58-.8-.58-.5 0-.87.2-.93.56h-.85c.13-.85.92-1.43 1.77-1.32 1.07 0 1.69.49 1.69 1.25a.93.93 0 0 1-.72.92v.07c.51.07.9.5.89 1.01 0 .86-.73 1.43-1.85 1.43-.98 0-1.78-.45-1.86-1.36ZM55 6.5V2h.88v3.1h.07L58.03 2h.88v4.5h-.88V3.4h-.07L55.88 6.5H55ZM63.73 2.75H62.3V6.5h-.9V2.75H60V2h3.73v.75Z" fill="#fff"/><path fill-rule="evenodd" clip-rule="evenodd" d="M67.1 6.68c.88.1 1.7-.46 1.95-1.3h-.86c-.2.38-.63.6-1.07.54a1.19 1.19 0 0 1-1.2-1.29v-.05h3.19v-.31C69.1 2.86 68.35 2 67.1 2a2.08 2.08 0 0 0-2.08 2.35 2.05 2.05 0 0 0 2.08 2.33Zm1.1-2.76h-2.27a1.15 1.15 0 0 1 1.16-1.16 1.09 1.09 0 0 1 1.1 1.16ZM72 2h2.03c.88 0 1.4.45 1.4 1.14 0 .46-.32.86-.76.96v.07c.54.03.97.49.96 1.03 0 .79-.6 1.3-1.58 1.3H72V2Zm.88.68v1.17h.88c.54 0 .8-.2.8-.59 0-.35-.23-.58-.7-.58h-.98Zm0 3.14V4.5h.94c.6 0 .92.21.92.66 0 .43-.28.66-.8.66h-1.06Z" fill="#fff"/></svg>