<svg width="117" height="28" viewBox="0 0 117 28" fill="none" xmlns="http://www.w3.org/2000/svg"><path d="M33.39 4.68h.8a1 1 0 0 0 1.12-.95c0-.55-.41-.9-1.11-.9a1.06 1.06 0 0 0-1.2.93h-.88a1.87 1.87 0 0 1 2.1-1.74c1.18 0 2 .65 2 1.6.01.65-.44 1.22-1.08 1.36v.08c.77.03 1.36.67 1.33 1.44a2 2 0 0 1-2.23 1.77A1.98 1.98 0 0 1 32 6.51h.89c.05.57.58.94 1.35.94.77 0 1.28-.42 1.28-1 0-.6-.48-.96-1.3-.96h-.83v-.8Z" fill="#fff"/><path fill-rule="evenodd" clip-rule="evenodd" d="M39.67 4.97C38.6 5.04 38 5.51 38 6.32a1.36 1.36 0 0 0 1.5 1.34c.55.03 1.06-.24 1.35-.7h.07v.63h.86V4.51c0-.95-.64-1.51-1.77-1.51-1.02 0-1.75.5-1.84 1.27h.86c.1-.32.45-.5.94-.5.61 0 .92.27.92.74v.4l-1.22.06Zm1.22.59v.37a1.06 1.06 0 0 1-1.16.99c-.48 0-.84-.24-.84-.64s.28-.61.9-.65l1.1-.07Z" fill="#fff"/><path d="M43.89 3.75V7.5H43V3h2.97v.75h-2.08Z" fill="#fff"/><path fill-rule="evenodd" clip-rule="evenodd" d="M49.34 7.65c1.14 0 1.87-.9 1.87-2.33C51.2 3.9 50.48 3 49.34 3c-.6-.01-1.14.3-1.42.82h-.06v-.74H47v6h.89V6.9h.07c.27.5.81.8 1.38.75ZM49.1 3.8c.75 0 1.2.57 1.2 1.52 0 .96-.45 1.53-1.2 1.53s-1.22-.58-1.22-1.52c0-.94.47-1.53 1.22-1.53Z" fill="#fff"/><path d="M52.46 9.12v-.77l.29.02c.4.03.74-.24.81-.63l.07-.22L52 3h.97l1.13 3.58h.07L55.29 3h.94l-1.67 4.69c-.39 1.1-.81 1.45-1.73 1.45l-.37-.02ZM57 6.33h.88c.1.4.46.6.98.6.6 0 .96-.26.96-.67 0-.43-.33-.64-.96-.64h-.67v-.69h.66c.54 0 .81-.2.81-.58 0-.33-.26-.58-.8-.58-.5 0-.87.2-.93.56h-.85c.13-.85.92-1.43 1.77-1.32 1.07 0 1.69.49 1.69 1.25a.93.93 0 0 1-.72.92v.07c.51.07.9.5.89 1.01 0 .86-.73 1.43-1.85 1.43-.98 0-1.78-.45-1.86-1.36ZM62 7.5V3h.88v3.1h.07L65.03 3h.88v4.5h-.88V4.4h-.07L62.88 7.5H62ZM70.73 3.75H69.3V7.5h-.9V3.75H67V3h3.73v.75Z" fill="#fff"/><path fill-rule="evenodd" clip-rule="evenodd" d="M74.1 7.68c.88.1 1.7-.46 1.95-1.3h-.86c-.2.38-.63.6-1.07.54a1.19 1.19 0 0 1-1.2-1.29v-.05h3.19v-.31C76.1 3.86 75.35 3 74.1 3a2.08 2.08 0 0 0-2.08 2.35 2.05 2.05 0 0 0 2.08 2.33Zm1.1-2.76h-2.27a1.15 1.15 0 0 1 1.16-1.16 1.09 1.09 0 0 1 1.1 1.16ZM79 3h2.03c.88 0 1.4.45 1.4 1.15 0 .45-.32.85-.76.95v.07c.54.03.97.49.96 1.03 0 .79-.6 1.3-1.58 1.3H79V3Zm.88.68v1.17h.88c.54 0 .8-.2.8-.59 0-.35-.23-.58-.7-.58h-.98Zm0 3.14V5.5h.94c.6 0 .92.21.92.66 0 .43-.28.66-.8.66h-1.06ZM38.6 17v1.8h4.3c-.1 1-.5 1.8-1 2.3-.6.6-1.6 1.3-3.3 1.3-2.7 0-4.7-2.1-4.7-4.8a4.72 4.72 0 0 1 8-3.5l1.3-1.3a6.4 6.4 0 0 0-4.5-1.8c-3.6 0-6.7 3-6.7 6.6 0 3.6 3.1 6.6 6.7 6.6 2 0 3.4-.6 4.6-1.9 1.2-1.2 1.6-2.9 1.6-4.2 0-.4 0-.8-.1-1.1h-6.2Zm11.1-1.3a4.2 4.2 0 0 0-4.3 4.3c0 2.4 1.9 4.3 4.3 4.3S54 22.5 54 20c0-2.6-1.9-4.3-4.3-4.3Zm5 4.3c0-2.5 1.9-4.3 4.3-4.3s4.3 1.7 4.3 4.3c0 2.5-1.9 4.3-4.3 4.3s-4.3-1.9-4.3-4.3Zm1.9-.1c0 1.5 1.1 2.6 2.4 2.6 1.3 0 2.4-1.1 2.4-2.6 0-1.6-1.1-2.6-2.4-2.6-1.3 0-2.4 1.1-2.4 2.6Zm-9.3 0c0 1.5 1.1 2.6 2.4 2.6 1.3 0 2.4-1.1 2.4-2.6 0-1.6-1.1-2.6-2.4-2.6-1.3 0-2.4 1.1-2.4 2.6Zm33.1-4.2c2.2 0 3.2 1.7 3.6 2.7l.2.5-5.7 2.4c.5.9 1.1 1.3 2.1 1.3s1.6-.5 2.1-1.2l1.4 1c-.4.7-1.6 1.9-3.5 1.9-2.4 0-4.2-1.9-4.2-4.3 0-2.6 1.8-4.3 4-4.3Zm-2.2 4.1c0-1.6 1.3-2.5 2.2-2.5.7 0 1.4.4 1.6.9l-3.8 1.6Zm-2.8 4.1h-1.9V11.4h1.9v12.5Zm-4.9-7.3c-.5-.5-1.3-1-2.3-1a4.3 4.3 0 0 0-4.1 4.3c0 2.4 1.9 4.2 4.1 4.2 1 0 1.8-.5 2.2-1h.1v.6c0 1.6-.9 2.5-2.3 2.5-1.1 0-1.9-.8-2.1-1.5l-1.6.7c.5 1.1 1.7 2.5 3.8 2.5 2.2 0 4-1.3 4-4.4v-7.6h-1.8v.7Zm-4.6 3.3c0 1.5 1.1 2.6 2.4 2.6 1.3 0 2.3-1.1 2.3-2.6s-1-2.6-2.3-2.6c-1.3 0-2.4 1.1-2.4 2.6Zm26.8-8.5h-4.5v12.5h1.9v-4.7h2.6c2.1 0 4.1-1.5 4.1-3.9s-2-3.9-4.1-3.9Zm-2.6 6h2.7c1.3 0 2.1-1.1 2.2-2.2 0-.9-.8-2.1-2.2-2.1h-2.7v4.3Zm14.2-1.8c-1.4 0-2.8.6-3.3 1.9l1.7.7c.4-.7 1-.9 1.7-.9 1 0 1.9.6 2 1.6v.1c-.3-.2-1.1-.5-1.9-.5-1.8 0-3.6 1-3.6 2.8 0 1.7 1.5 2.8 3.1 2.8 1.3 0 1.9-.6 2.4-1.2h.1v1h1.8v-4.8c-.2-2.2-1.9-3.5-4-3.5Zm-1.7 5.8c0 .8.9 1.1 1.5 1.1 1 0 2-.8 2.2-2l-.15-.06a3.58 3.58 0 0 0-1.55-.34c-.9 0-2 .3-2 1.3Zm12-5.5-2.1 5.4h-.1l-2.2-5.4h-2l3.3 7.6-1.9 4.2h1.9l5.1-11.8h-2Zm-14.9 8h-1.9V11.4h1.9v12.5Z" fill="#fff"/><path d="M1.4.5c-.3.3-.5.8-.5 1.4V24c0 .6.2 1.1.5 1.4l.1.1 12.4-12.4v-.2L1.4.5Z" fill="url(#a)"/><path d="m18 17.3-4.1-4.1V12.9L18 8.8l.1.1 4.9 2.8c1.4.8 1.4 2.1 0 2.9l-5 2.7Z" fill="url(#b)"/><path d="M18.1 17.2 13.9 13 1.4 25.5c.5.5 1.2.5 2.1.1l14.6-8.4Z" fill="url(#c)"/><path d="M18.1 8.8 3.5.5C2.6 0 1.9.1 1.4.6L13.9 13l4.2-4.2Z" fill="url(#d)"/><path opacity=".2" d="M18 17.1 3.5 25.3c-.8.5-1.5.4-2 0l-.1.1.1.1c.5.4 1.2.5 2 0L18 17.1Z" fill="#000"/><path opacity=".12" d="M1.4 25.3c-.3-.3-.4-.8-.4-1.4v.1c0 .6.2 1.1.5 1.4v-.1h-.1ZM23 14.3l-5 2.8.1.1 4.9-2.8c.7-.4 1-.9 1-1.4 0 .5-.4.9-1 1.3Z" fill="#000"/><path opacity=".25" d="M3.5.6 23 11.7c.6.4 1 .8 1 1.3 0-.5-.3-1-1-1.4L3.5.5C2.1-.3 1 .4 1 2v.1C1 .5 2.1-.2 3.5.6Z" fill="#fff"/><defs><linearGradient id="a" x1="8.44" y1="-14.43" x2="-11.43" y2="-9.05" gradientUnits="userSpaceOnUse"><stop stop-color="#00A0FF"/><stop offset=".01" stop-color="#00A1FF"/><stop offset=".26" stop-color="#00BEFF"/><stop offset=".51" stop-color="#00D2FF"/><stop offset=".76" stop-color="#00DFFF"/><stop offset="1" stop-color="#00E3FF"/></linearGradient><linearGradient id="b" x1="24.83" y1="2.87" x2=".64" y2="2.87" gradientUnits="userSpaceOnUse"><stop stop-color="#FFE000"/><stop offset=".41" stop-color="#FFBD00"/><stop offset=".78" stop-color="orange"/><stop offset="1" stop-color="#FF9C00"/></linearGradient><linearGradient id="c" x1="1.08" y1="6.51" x2="-14.88" y2="33.32" gradientUnits="userSpaceOnUse"><stop stop-color="#FF3A44"/><stop offset="1" stop-color="#C31162"/></linearGradient><linearGradient id="d" x1="-8.32" y1="-2.92" x2="-1.24" y2="9.07" gradientUnits="userSpaceOnUse"><stop stop-color="#32A071"/><stop offset=".07" stop-color="#2DA771"/><stop offset=".48" stop-color="#15CF74"/><stop offset=".8" stop-color="#06E775"/><stop offset="1" stop-color="#00F076"/></linearGradient></defs></svg>