<svg width="16" height="10" viewBox="0 0 16 10" fill="none" xmlns="http://www.w3.org/2000/svg"><path fill-rule="evenodd" clip-rule="evenodd" d="M15.63.63c.11-.36 0-.63-.53-.63h-1.75c-.44 0-.65.23-.76.48 0 0-.89 2.12-2.15 3.5-.4.39-.6.52-.82.52-.1 0-.27-.13-.27-.5V.64c0-.44-.13-.63-.5-.63H6.1c-.28 0-.44.2-.44.4 0 .4.63.5.7 1.66v2.5c0 .56-.11.66-.33.66-.6 0-2.04-2.13-2.9-4.56C2.97.2 2.8 0 2.35 0H.6C.1 0 0 .23 0 .48c0 .45.6 2.7 2.76 5.66C4.21 8.17 6.25 9.26 8.1 9.26c1.11 0 1.25-.24 1.25-.66V7.07c0-.49.1-.59.46-.59.26 0 .7.13 1.74 1.1 1.19 1.16 1.39 1.68 2.05 1.68h1.75c.5 0 .75-.24.61-.72a7.33 7.33 0 0 0-1.48-2c-.4-.47-1.02-.98-1.2-1.23-.26-.33-.19-.47 0-.76 0 0 2.13-2.93 2.35-3.92Z" fill="#fff"/></svg>