<svg width="16" height="16" viewBox="0 0 16 16" fill="none" xmlns="http://www.w3.org/2000/svg">
<path fill-rule="evenodd" clip-rule="evenodd" d="M8 0C5.82733 0 5.55533 0.00933333 4.702 0.048C1.79667 0.181333 0.182 1.79333 0.0486667 4.70133C0.00933333 5.55533 0 5.82733 0 8C0 10.1727 0.00933333 10.4453 0.048 11.2987C0.181333 14.204 1.79333 15.8187 4.70133 15.952C5.55533 15.9907 5.82733 16 8 16C10.1727 16 10.4453 15.9907 11.2987 15.952C14.2013 15.8187 15.82 14.2067 15.9513 11.2987C15.9907 10.4453 16 10.1727 16 8C16 5.82733 15.9907 5.55533 15.952 4.702C15.8213 1.79933 14.2073 0.182 11.2993 0.0486667C10.4453 0.00933333 10.1727 0 8 0ZM8.00007 1.44189C10.1361 1.44189 10.3894 1.44989 11.2334 1.48856C13.4014 1.58723 14.4141 2.61589 14.5127 4.76789C14.5514 5.61123 14.5587 5.86456 14.5587 8.00056C14.5587 10.1372 14.5507 10.3899 14.5127 11.2332C14.4134 13.3832 13.4034 14.4139 11.2334 14.5126C10.3894 14.5512 10.1374 14.5592 8.00007 14.5592C5.86407 14.5592 5.61074 14.5512 4.76741 14.5126C2.59407 14.4132 1.58674 13.3799 1.48807 11.2326C1.44941 10.3892 1.44141 10.1366 1.44141 7.99989C1.44141 5.86389 1.45007 5.61123 1.48807 4.76723C1.58741 2.61589 2.59741 1.58656 4.76741 1.48789C5.61141 1.44989 5.86407 1.44189 8.00007 1.44189ZM3.892 8.00009C3.892 5.73142 5.73133 3.89209 8 3.89209C10.2687 3.89209 12.108 5.73142 12.108 8.00009C12.108 10.2694 10.2687 12.1088 8 12.1088C5.73133 12.1088 3.892 10.2688 3.892 8.00009ZM7.99992 10.6666C6.52725 10.6666 5.33325 9.47325 5.33325 7.99992C5.33325 6.52725 6.52725 5.33325 7.99992 5.33325C9.47259 5.33325 10.6666 6.52725 10.6666 7.99992C10.6666 9.47325 9.47259 10.6666 7.99992 10.6666ZM11.3101 3.73002C11.3101 3.20002 11.7401 2.77002 12.2707 2.77002C12.8007 2.77002 13.2301 3.20002 13.2301 3.73002C13.2301 4.26002 12.8007 4.69002 12.2707 4.69002C11.7401 4.69002 11.3101 4.26002 11.3101 3.73002Z" fill="white"/>
</svg>
