<svg width="24" height="25" viewBox="0 0 24 25" fill="none" xmlns="http://www.w3.org/2000/svg"><path fill-rule="evenodd" clip-rule="evenodd" d="M12.88 7.73c0 1.12-.32 2.17-.88 3.05a5.69 5.69 0 0 1-.88-3.05v-.25c0-1.12.33-2.17.88-3.05.56.88.88 1.93.88 3.05v.25Zm0 9.6c0 1.12-.32 2.16-.88 3.04a5.7 5.7 0 0 1-.88-3.04v-.26c0-1.12.33-2.16.88-3.04.56.88.88 1.92.88 3.04v.26ZM24 1.83V0h-7.36A7.3 7.3 0 0 0 12 1.7 7.3 7.3 0 0 0 7.36 0H0v1.83h7.36c1.27 0 2.45.45 3.38 1.2a7.56 7.56 0 0 0-1.48 4.5v.34c0 .72.1 1.41.29 2.08a7.2 7.2 0 0 0-2.22-.35H0v1.83h7.36c1.14 0 2.2.36 3.09.97-.88.62-1.95.97-3.1.97H0v2.03h7.33c.77 0 1.51-.12 2.21-.34a7.64 7.64 0 0 0-.28 2.07v.34c0 1.63.51 3.14 1.4 4.38a5.4 5.4 0 0 1-3.3 1.12H0V25h7.33A7.3 7.3 0 0 0 12 23.3a7.3 7.3 0 0 0 4.67 1.7H24v-2.03h-7.36a5.4 5.4 0 0 1-3.3-1.12 7.55 7.55 0 0 0 1.4-4.38v-.34c0-.72-.1-1.41-.29-2.07.7.22 1.45.34 2.22.34H24v-2.03h-7.36c-1.14 0-2.2-.35-3.09-.97a5.41 5.41 0 0 1 3.1-.97H24V9.6h-7.33c-.77 0-1.51.12-2.22.35.2-.67.3-1.36.3-2.07v-.35c0-1.68-.56-3.24-1.5-4.5a5.41 5.41 0 0 1 3.4-1.2H24Z" fill="#000"/></svg>