<svg width="183" height="45" viewBox="0 0 183 45" fill="none" xmlns="http://www.w3.org/2000/svg"><g clip-path="url(#a)" fill="#231F20"><path d="M71.8 44.86h1.24v-2.44h2.3c1.08 0 2.84 0 2.84-1.92 0-1.93-1.76-1.93-2.83-1.93H71.8v6.29Zm1.24-3.5v-1.73h2.57c.71 0 1.33.06 1.33.86s-.62.87-1.33.87h-2.57ZM79.66 44.86h1.32l.67-1.44h3.65l.66 1.44h1.31l-3.08-6.3h-1.42l-3.11 6.3Zm2.5-2.5 1.33-2.8 1.33 2.8h-2.66ZM90.36 44.86h1.24v-2.49h1.97l1.84 2.49h1.53l-1.95-2.57c.94-.05 1.77-.69 1.77-1.85 0-1.53-1.07-1.86-2.58-1.86h-3.82v6.28Zm1.24-3.5v-1.77H94c1.01 0 1.52.15 1.52.88 0 .74-.51.89-1.52.89h-2.4ZM101.86 38.58h-1.24v6.28h1.24v-6.28ZM110.62 40.48c-.19-.55-.7-1.04-2.22-1.04-.84 0-1.68.21-1.68.79 0 .27.16.55 1.43.7l1.49.22c1.42.22 2.26.76 2.26 1.81 0 1.48-1.43 2.04-3.12 2.04-2.71 0-3.38-1.34-3.53-1.81l1.18-.37c.24.45.7 1.12 2.38 1.12 1.01 0 1.84-.33 1.84-.88 0-.4-.47-.66-1.37-.77l-1.52-.22c-1.46-.2-2.27-.83-2.27-1.78 0-1.86 2.45-1.86 2.94-1.86 2.74 0 3.2 1.24 3.36 1.67l-1.17.38ZM157.48 28.21c.51 4.37 2.8 3.72 2.92 4.1 0 0-8.8-.01-8.8-.03-.05-.15 2.52-.05 2.01-3.88l-2.3-17.07c-.1-.45-.1-.97-.34-.85-.18.08-7.76 18.43-7.76 18.43-.12.31-.3.5-.55.06-.18-.3-7.1-15.54-7.1-15.54-.34-.76-.95-1.97-1.05-2.19-.18-.38-.44-.42-.42.85l-1.8 17.3c-.43 3 2.42 2.78 2.38 2.98h-6.25c-.07-.16 2.1.13 2.58-3.04l2.05-19.1c-.16-3.7-2.76-3.5-2.76-3.8h6.56l.1.2 6.96 15.2c.1.18.17.26.22.38.2.42.19.73.42.15l6.82-15.96 6.3.02c.05.22-2.53.11-2.53 3.28l2.34 18.51ZM13.63 31.46h-3.56c-1.24-.04-2.73.19-2.73-1.28v-20.1c0-3.1 3.45-3.11 3.67-3.35H.41c-.14.21 3.25.3 3.25 3.47v19.38C3.6 32.13 0 32.2 0 32.34h18.77l1.05-5.54c-.4-.04-.11 4.57-6.19 4.65ZM169.57 19.56l.01 6.39v3.36c.03 1.94-.16 2.17 1.11 2.18l6.94-.01c5.54-.34 4.56-4.23 5.03-4.33l-.16 5.21H163c-.07-.19 2.9.3 2.9-3.95V10.45c0-4.26-2.74-3.61-2.7-3.94h19.3l.16 5.12c-.38-.03.63-4.01-5.1-4.37h-6.41c-.96.25-1.57-.4-1.57 2.13v5.52l.01 1.24c0 .94.02 1.03 1.35 1.03h6.19c3.12 0 2.7-2.83 2.98-2.83v6.69c-.28 0 .14-3.1-2.83-3H171c-1.38-.03-1.42.47-1.42 1.4l-.02.12ZM53.64 29.67c.36 3.2 2.8 2.38 2.8 2.69h-6.81c.03-.3 2.73-.01 2.69-2.89V10.02c.04-3.36-2.88-3.37-2.96-3.63h6.83l14.13 17.53-.05-14.23c-.1-3.43-2.72-3.2-2.76-3.38h7.13c-.03.18-2.82.24-2.96 3.38l-.03 22.01s.24 1.67-.77.36c-.44-.58-16.99-21.54-16.99-21.54-.15-.18-.22.02-.24.53l-.01 18.34v.28ZM44.49 29.1l-9.5-22.57c-.7-.77-.94.1-.94.1-.94 2.18-9.62 23.09-9.62 23.09-1.18 2.79-2.72 2.45-2.72 2.64h6.14c0-.31-3.31.2-2.18-2.7l3.3-8.05c.33-.5.35-.66 1.17-.66h6.14c.76 0 .79 0 1.11.74l3.1 7.61c.92 3.04-1.85 2.87-1.81 3.06h8.73c.07-.26-1.34.62-2.92-3.26Zm-13.76-9.4c-.68 0-.59-.4-.33-1.03L33 12.2c.35-.9.73-.73 1 .04l2.32 6.54c.24.73.52.93-.26.93h-5.33ZM124.87 5.16 114.4 0l-10.44 5.16 10.44-3.2 10.46 3.2ZM114.47 5.94c-8.13 0-13.4 6.48-13.4 13.37 0 6.9 5.2 13.04 13.34 13.04 8.13 0 13.46-6.14 13.46-13.04 0-6.9-5.26-13.37-13.4-13.37Zm-.06 25.45h-.07c-5 0-8.31-4.7-8.31-12.02 0-8.38 3.38-12.45 8.38-12.45 5 .02 8.39 4.07 8.39 12.45 0 7.29-3.43 11.96-8.39 12.02ZM89.66 31.33c5.88-.1 8.5-4.18 9.03-4.37.26-.1-2.87 5.35-9.1 5.35-14.03 0-13.77-12.7-13.77-12.7.43-8.92 7.65-14.24 14.56-13.51 1.85.2 2.65.49 4.02.92.63.2 2.35 1.14 3.04.88.48-.17.83-1.19.95-1.25l.07 6.96c-.5 0-2.04-6.7-8.71-6.7-5.47 0-9.62 6.26-9.52 12.37.14 10.24 7.28 12.08 9.43 12.05Z"/></g><defs><clipPath id="a"><path fill="#fff" d="M0 0h182.66v45H0z"/></clipPath></defs></svg>