<svg width="224" height="55" viewBox="0 0 224 55" fill="none" xmlns="http://www.w3.org/2000/svg"><g clip-path="url(#a)" fill="#231F20"><path d="M87.76 54.83h1.51v-2.98h2.82c1.3 0 3.46 0 3.46-2.35 0-2.36-2.15-2.36-3.46-2.36h-4.32v7.69Zm1.51-4.28v-2.1h3.14c.87 0 1.63.06 1.63 1.04s-.76 1.06-1.63 1.06h-3.14ZM97.36 54.83h1.61l.82-1.76h4.47l.8 1.76h1.6l-3.76-7.69h-1.73l-3.81 7.69Zm3.06-3.06 1.62-3.43 1.63 3.43h-3.25ZM110.44 54.83h1.51v-3.04h2.4l2.27 3.04h1.86l-2.38-3.14c1.14-.06 2.16-.84 2.16-2.26 0-1.87-1.3-2.28-3.15-2.28h-4.67v7.68Zm1.51-4.28v-2.17h2.93c1.25 0 1.87.19 1.87 1.09 0 .9-.63 1.08-1.87 1.08h-2.93ZM124.5 47.15h-1.52v7.68h1.51v-7.68ZM135.2 49.47c-.23-.67-.86-1.26-2.7-1.26-1.04 0-2.06.26-2.06.96 0 .33.19.67 1.74.85l1.82.28c1.74.27 2.76.92 2.76 2.2 0 1.82-1.74 2.5-3.8 2.5-3.32 0-4.14-1.63-4.32-2.22l1.45-.45c.28.56.85 1.38 2.9 1.38 1.24 0 2.25-.41 2.25-1.08 0-.49-.57-.81-1.68-.95l-1.85-.26c-1.79-.24-2.78-1.01-2.78-2.17 0-2.28 3-2.28 3.6-2.28 3.34 0 3.9 1.52 4.1 2.04l-1.43.46ZM192.48 34.48c.62 5.34 3.42 4.54 3.57 5 0 0-10.77 0-10.77-.02-.05-.2 3.09-.06 2.47-4.75l-2.81-20.87c-.13-.55-.13-1.18-.42-1.03-.23.1-9.49 22.53-9.49 22.53-.14.37-.37.6-.67.07-.22-.38-8.68-19-8.68-19-.41-.92-1.16-2.4-1.28-2.67-.22-.46-.54-.52-.52 1.04L161.7 35.9c-.53 3.69 2.95 3.41 2.9 3.65h-7.63c-.09-.19 2.56.16 3.15-3.71l2.5-23.35c-.19-4.52-3.36-4.27-3.36-4.65h8.02l.11.25 8.51 18.57c.13.23.2.33.27.48.25.51.22.89.5.18L185 7.83l7.71.02c.05.27-3.1.13-3.1 4.01l2.87 22.62ZM16.66 38.45H12.3c-1.5-.05-3.32.23-3.32-1.57V12.33c0-3.8 4.2-3.81 4.48-4.1H.5c-.17.25 3.97.37 3.97 4.24v23.68C4.4 39.28 0 39.35 0 39.54h22.95l1.27-6.78c-.47-.05-.13 5.6-7.56 5.69ZM207.26 23.9v11.92c.04 2.38-.19 2.65 1.36 2.67l8.48-.02c6.78-.4 5.58-5.16 6.15-5.28l-.2 6.37h-23.82c-.1-.24 3.54.36 3.54-4.84V12.78c0-5.21-3.35-4.42-3.3-4.83h23.58l.2 6.27c-.47-.04.78-4.91-6.24-5.34h-7.83c-1.17.3-1.92-.5-1.92 2.6v6.75l.02 1.5c0 1.16.03 1.26 1.64 1.26h7.57c3.82 0 3.3-3.45 3.64-3.45v8.17c-.34 0 .17-3.78-3.45-3.66H209c-1.68-.04-1.74.57-1.74 1.72l-.01.13ZM65.56 36.26c.44 3.9 3.42 2.91 3.42 3.29h-8.32c.03-.37 3.33-.01 3.28-3.53V12.24c.06-4.1-3.51-4.11-3.61-4.43h8.35l17.27 21.42-.06-17.39c-.12-4.19-3.33-3.9-3.38-4.12h8.71c-.03.2-3.44.29-3.62 4.12l-.03 26.9s.3 2.05-.94.44L65.87 12.86c-.2-.22-.28.02-.3.65l-.01 22.41v.34ZM54.37 35.56 42.76 7.98c-.85-.95-1.15.13-1.15.13a10010.9 10010.9 0 0 0-11.76 28.21c-1.44 3.41-3.32 3-3.32 3.24h7.5c0-.39-4.04.24-2.65-3.3l4.02-9.85c.41-.61.44-.8 1.44-.8l7.5-.01c.93 0 .97 0 1.36.9l3.8 9.31c1.1 3.72-2.28 3.51-2.23 3.75h10.67c.1-.32-1.63.75-3.57-4ZM37.56 24.1c-.84 0-.72-.5-.4-1.27 0 0 2.83-7.07 3.16-7.93.44-1.1.9-.88 1.23.06l2.84 7.99c.3.89.64 1.14-.32 1.14h-6.51ZM152.62 6.3 139.84 0l-12.77 6.3 12.77-3.9 12.78 3.9ZM139.9 7.26c-9.93 0-16.37 7.92-16.37 16.34 0 8.43 6.36 15.94 16.3 15.94 9.94 0 16.46-7.51 16.46-15.94 0-8.42-6.43-16.34-16.38-16.34Zm-.06 31.1h-.1c-6.11 0-10.15-5.73-10.15-14.68 0-10.25 4.13-15.22 10.24-15.22 6.1.02 10.26 4.98 10.26 15.22 0 8.9-4.2 14.62-10.25 14.68ZM109.58 38.3c7.2-.13 10.4-5.11 11.05-5.34.3-.12-3.52 6.53-11.14 6.53-17.13 0-16.83-15.53-16.83-15.53.53-10.9 9.36-17.4 17.8-16.5 2.27.23 3.25.6 4.92 1.12.77.25 2.87 1.39 3.71 1.08.59-.22 1.02-1.46 1.17-1.53l.07 8.5c-.6 0-2.48-8.18-10.64-8.18-6.68 0-11.75 7.64-11.63 15.12.17 12.51 8.9 14.76 11.52 14.73Z"/></g><defs><clipPath id="a"><path fill="#fff" d="M0 0h223.25v55H0z"/></clipPath></defs></svg>