<svg xmlns="http://www.w3.org/2000/svg" xmlns:xlink="http://www.w3.org/1999/xlink"><defs><linearGradient id="a" x1="8.44" y1="-14.43" x2="-11.43" y2="-9.05" gradientUnits="userSpaceOnUse"><stop stop-color="#00A0FF"/><stop offset=".01" stop-color="#00A1FF"/><stop offset=".26" stop-color="#00BEFF"/><stop offset=".51" stop-color="#00D2FF"/><stop offset=".76" stop-color="#00DFFF"/><stop offset="1" stop-color="#00E3FF"/></linearGradient><linearGradient id="b" x1="24.83" y1="2.87" x2=".64" y2="2.87" gradientUnits="userSpaceOnUse"><stop stop-color="#FFE000"/><stop offset=".41" stop-color="#FFBD00"/><stop offset=".78" stop-color="orange"/><stop offset="1" stop-color="#FF9C00"/></linearGradient><linearGradient id="c" x1="1.08" y1="6.51" x2="-14.88" y2="33.32" gradientUnits="userSpaceOnUse"><stop stop-color="#FF3A44"/><stop offset="1" stop-color="#C31162"/></linearGradient><linearGradient id="d" x1="-8.32" y1="-2.92" x2="-1.24" y2="9.07" gradientUnits="userSpaceOnUse"><stop stop-color="#32A071"/><stop offset=".07" stop-color="#2DA771"/><stop offset=".48" stop-color="#15CF74"/><stop offset=".8" stop-color="#06E775"/><stop offset="1" stop-color="#00F076"/></linearGradient></defs><symbol id="icon_android" viewBox="0 0 117 28"><path d="M33.39 4.68h.8a1 1 0 0 0 1.12-.95c0-.55-.41-.9-1.11-.9a1.06 1.06 0 0 0-1.2.93h-.88a1.87 1.87 0 0 1 2.1-1.74c1.18 0 2 .65 2 1.6.01.65-.44 1.22-1.08 1.36v.08c.77.03 1.36.67 1.33 1.44a2 2 0 0 1-2.23 1.77A1.98 1.98 0 0 1 32 6.51h.89c.05.57.58.94 1.35.94.77 0 1.28-.42 1.28-1 0-.6-.48-.96-1.3-.96h-.83v-.8Z" fill="#fff"/><path fill-rule="evenodd" clip-rule="evenodd" d="M39.67 4.97C38.6 5.04 38 5.51 38 6.32a1.36 1.36 0 0 0 1.5 1.34c.55.03 1.06-.24 1.35-.7h.07v.63h.86V4.51c0-.95-.64-1.51-1.77-1.51-1.02 0-1.75.5-1.84 1.27h.86c.1-.32.45-.5.94-.5.61 0 .92.27.92.74v.4l-1.22.06Zm1.22.59v.37a1.06 1.06 0 0 1-1.16.99c-.48 0-.84-.24-.84-.64s.28-.61.9-.65l1.1-.07Z" fill="#fff"/><path d="M43.89 3.75V7.5H43V3h2.97v.75h-2.08Z" fill="#fff"/><path fill-rule="evenodd" clip-rule="evenodd" d="M49.34 7.65c1.14 0 1.87-.9 1.87-2.33C51.2 3.9 50.48 3 49.34 3c-.6-.01-1.14.3-1.42.82h-.06v-.74H47v6h.89V6.9h.07c.27.5.81.8 1.38.75ZM49.1 3.8c.75 0 1.2.57 1.2 1.52 0 .96-.45 1.53-1.2 1.53s-1.22-.58-1.22-1.52c0-.94.47-1.53 1.22-1.53Z" fill="#fff"/><path d="M52.46 9.12v-.77l.29.02c.4.03.74-.24.81-.63l.07-.22L52 3h.97l1.13 3.58h.07L55.29 3h.94l-1.67 4.69c-.39 1.1-.81 1.45-1.73 1.45l-.37-.02ZM57 6.33h.88c.1.4.46.6.98.6.6 0 .96-.26.96-.67 0-.43-.33-.64-.96-.64h-.67v-.69h.66c.54 0 .81-.2.81-.58 0-.33-.26-.58-.8-.58-.5 0-.87.2-.93.56h-.85c.13-.85.92-1.43 1.77-1.32 1.07 0 1.69.49 1.69 1.25a.93.93 0 0 1-.72.92v.07c.51.07.9.5.89 1.01 0 .86-.73 1.43-1.85 1.43-.98 0-1.78-.45-1.86-1.36ZM62 7.5V3h.88v3.1h.07L65.03 3h.88v4.5h-.88V4.4h-.07L62.88 7.5H62ZM70.73 3.75H69.3V7.5h-.9V3.75H67V3h3.73v.75Z" fill="#fff"/><path fill-rule="evenodd" clip-rule="evenodd" d="M74.1 7.68c.88.1 1.7-.46 1.95-1.3h-.86c-.2.38-.63.6-1.07.54a1.19 1.19 0 0 1-1.2-1.29v-.05h3.19v-.31C76.1 3.86 75.35 3 74.1 3a2.08 2.08 0 0 0-2.08 2.35 2.05 2.05 0 0 0 2.08 2.33Zm1.1-2.76h-2.27a1.15 1.15 0 0 1 1.16-1.16 1.09 1.09 0 0 1 1.1 1.16ZM79 3h2.03c.88 0 1.4.45 1.4 1.15 0 .45-.32.85-.76.95v.07c.54.03.97.49.96 1.03 0 .79-.6 1.3-1.58 1.3H79V3Zm.88.68v1.17h.88c.54 0 .8-.2.8-.59 0-.35-.23-.58-.7-.58h-.98Zm0 3.14V5.5h.94c.6 0 .92.21.92.66 0 .43-.28.66-.8.66h-1.06ZM38.6 17v1.8h4.3c-.1 1-.5 1.8-1 2.3-.6.6-1.6 1.3-3.3 1.3-2.7 0-4.7-2.1-4.7-4.8a4.72 4.72 0 0 1 8-3.5l1.3-1.3a6.4 6.4 0 0 0-4.5-1.8c-3.6 0-6.7 3-6.7 6.6 0 3.6 3.1 6.6 6.7 6.6 2 0 3.4-.6 4.6-1.9 1.2-1.2 1.6-2.9 1.6-4.2 0-.4 0-.8-.1-1.1h-6.2Zm11.1-1.3a4.2 4.2 0 0 0-4.3 4.3c0 2.4 1.9 4.3 4.3 4.3S54 22.5 54 20c0-2.6-1.9-4.3-4.3-4.3Zm5 4.3c0-2.5 1.9-4.3 4.3-4.3s4.3 1.7 4.3 4.3c0 2.5-1.9 4.3-4.3 4.3s-4.3-1.9-4.3-4.3Zm1.9-.1c0 1.5 1.1 2.6 2.4 2.6 1.3 0 2.4-1.1 2.4-2.6 0-1.6-1.1-2.6-2.4-2.6-1.3 0-2.4 1.1-2.4 2.6Zm-9.3 0c0 1.5 1.1 2.6 2.4 2.6 1.3 0 2.4-1.1 2.4-2.6 0-1.6-1.1-2.6-2.4-2.6-1.3 0-2.4 1.1-2.4 2.6Zm33.1-4.2c2.2 0 3.2 1.7 3.6 2.7l.2.5-5.7 2.4c.5.9 1.1 1.3 2.1 1.3s1.6-.5 2.1-1.2l1.4 1c-.4.7-1.6 1.9-3.5 1.9-2.4 0-4.2-1.9-4.2-4.3 0-2.6 1.8-4.3 4-4.3Zm-2.2 4.1c0-1.6 1.3-2.5 2.2-2.5.7 0 1.4.4 1.6.9l-3.8 1.6Zm-2.8 4.1h-1.9V11.4h1.9v12.5Zm-4.9-7.3c-.5-.5-1.3-1-2.3-1a4.3 4.3 0 0 0-4.1 4.3c0 2.4 1.9 4.2 4.1 4.2 1 0 1.8-.5 2.2-1h.1v.6c0 1.6-.9 2.5-2.3 2.5-1.1 0-1.9-.8-2.1-1.5l-1.6.7c.5 1.1 1.7 2.5 3.8 2.5 2.2 0 4-1.3 4-4.4v-7.6h-1.8v.7Zm-4.6 3.3c0 1.5 1.1 2.6 2.4 2.6 1.3 0 2.3-1.1 2.3-2.6s-1-2.6-2.3-2.6c-1.3 0-2.4 1.1-2.4 2.6Zm26.8-8.5h-4.5v12.5h1.9v-4.7h2.6c2.1 0 4.1-1.5 4.1-3.9s-2-3.9-4.1-3.9Zm-2.6 6h2.7c1.3 0 2.1-1.1 2.2-2.2 0-.9-.8-2.1-2.2-2.1h-2.7v4.3Zm14.2-1.8c-1.4 0-2.8.6-3.3 1.9l1.7.7c.4-.7 1-.9 1.7-.9 1 0 1.9.6 2 1.6v.1c-.3-.2-1.1-.5-1.9-.5-1.8 0-3.6 1-3.6 2.8 0 1.7 1.5 2.8 3.1 2.8 1.3 0 1.9-.6 2.4-1.2h.1v1h1.8v-4.8c-.2-2.2-1.9-3.5-4-3.5Zm-1.7 5.8c0 .8.9 1.1 1.5 1.1 1 0 2-.8 2.2-2l-.15-.06a3.58 3.58 0 0 0-1.55-.34c-.9 0-2 .3-2 1.3Zm12-5.5-2.1 5.4h-.1l-2.2-5.4h-2l3.3 7.6-1.9 4.2h1.9l5.1-11.8h-2Zm-14.9 8h-1.9V11.4h1.9v12.5Z" fill="#fff"/><path d="M1.4.5c-.3.3-.5.8-.5 1.4V24c0 .6.2 1.1.5 1.4l.1.1 12.4-12.4v-.2L1.4.5Z" fill="url(#a)"/><path d="m18 17.3-4.1-4.1V12.9L18 8.8l.1.1 4.9 2.8c1.4.8 1.4 2.1 0 2.9l-5 2.7Z" fill="url(#b)"/><path d="M18.1 17.2 13.9 13 1.4 25.5c.5.5 1.2.5 2.1.1l14.6-8.4Z" fill="url(#c)"/><path d="M18.1 8.8 3.5.5C2.6 0 1.9.1 1.4.6L13.9 13l4.2-4.2Z" fill="url(#d)"/><path opacity=".2" d="M18 17.1 3.5 25.3c-.8.5-1.5.4-2 0l-.1.1.1.1c.5.4 1.2.5 2 0L18 17.1Z" fill="#000"/><path opacity=".12" d="M1.4 25.3c-.3-.3-.4-.8-.4-1.4v.1c0 .6.2 1.1.5 1.4v-.1h-.1ZM23 14.3l-5 2.8.1.1 4.9-2.8c.7-.4 1-.9 1-1.4 0 .5-.4.9-1 1.3Z" fill="#000"/><path opacity=".25" d="M3.5.6 23 11.7c.6.4 1 .8 1 1.3 0-.5-.3-1-1-1.4L3.5.5C2.1-.3 1 .4 1 2v.1C1 .5 2.1-.2 3.5.6Z" fill="#fff"/></symbol><symbol id="icon_fb" viewBox="0 0 8 17"><path fill-rule="evenodd" clip-rule="evenodd" d="M2.36 17V8.32H0V5.6h2.36v-2C2.36 1.27 3.8 0 5.9 0c1 0 1.86.07 2.11.1v2.44H6.55c-1.14 0-1.36.54-1.36 1.33V5.6H7.9l-.35 2.72H5.2V17H2.36Z" fill="#fff"/></symbol><symbol id="icon_instagram" viewBox="0 0 16 16"><path fill-rule="evenodd" clip-rule="evenodd" d="M8 0C5.83 0 5.56 0 4.7.05 1.8.18.18 1.79.05 4.7 0 5.56 0 5.83 0 8s0 2.45.05 3.3c.13 2.9 1.74 4.52 4.65 4.65.86.04 1.13.05 3.3.05s2.45 0 3.3-.05c2.9-.13 4.52-1.74 4.65-4.65.04-.85.05-1.13.05-3.3s0-2.44-.05-3.3C15.82 1.8 14.21.18 11.3.05 10.45 0 10.17 0 8 0Zm0 1.44c2.14 0 2.39.01 3.23.05 2.17.1 3.18 1.13 3.28 3.28.04.84.05 1.1.05 3.23 0 2.14 0 2.39-.05 3.23-.1 2.15-1.1 3.18-3.28 3.28-.84.04-1.1.05-3.23.05-2.14 0-2.39 0-3.23-.05-2.18-.1-3.18-1.13-3.28-3.28-.04-.84-.05-1.1-.05-3.23a56 56 0 0 1 .05-3.23c.1-2.15 1.1-3.18 3.28-3.28.84-.04 1.1-.05 3.23-.05ZM3.9 8a4.1 4.1 0 1 1 8.2 0 4.1 4.1 0 0 1-8.2 0ZM8 10.67a2.67 2.67 0 1 1 0-5.34 2.67 2.67 0 0 1 0 5.34Zm3.31-6.94a.96.96 0 1 1 1.92 0 .96.96 0 0 1-1.92 0Z" fill="#fff"/></symbol><symbol id="icon_iphone" viewBox="0 0 100 27"><path d="M15.39 12.58c.02-1.76.95-3.4 2.45-4.32a5.27 5.27 0 0 0-4.15-2.24c-1.75-.18-3.44 1.04-4.33 1.04-.9 0-2.28-1.02-3.75-1A5.53 5.53 0 0 0 .96 8.9c-2.02 3.49-.52 8.6 1.41 11.42.96 1.38 2.1 2.92 3.56 2.86 1.45-.06 1.99-.92 3.73-.92 1.72 0 2.23.92 3.73.89 1.55-.03 2.52-1.39 3.45-2.78a11.4 11.4 0 0 0 1.58-3.22 4.97 4.97 0 0 1-3.03-4.57ZM12.38 3.63A5.07 5.07 0 0 0 13.54 0a5.16 5.16 0 0 0-3.34 1.73 4.82 4.82 0 0 0-1.19 3.5c1.3 0 2.55-.58 3.37-1.6Z" fill="#fff"/><path fill-rule="evenodd" clip-rule="evenodd" d="M27.14 19.06h4.73l1.14 3.36h2.04L30.57 10h-2.09L24 22.42h2l1.14-3.36Zm4.24-1.55h-3.75l1.85-5.45h.05l1.85 5.45ZM41.75 23.24c2.27 0 3.78-1.8 3.78-4.62 0-2.8-1.52-4.62-3.81-4.62a3.21 3.21 0 0 0-2.89 1.6h-.03v-1.5H37v12.04h1.86v-4.48h.04a3.07 3.07 0 0 0 2.85 1.58Zm-.52-7.65c1.44 0 2.39 1.2 2.39 3.03 0 1.85-.95 3.05-2.4 3.05-1.41 0-2.37-1.22-2.37-3.05 0-1.8.96-3.04 2.38-3.04ZM51.75 23.24c2.27 0 3.78-1.8 3.78-4.62 0-2.8-1.52-4.62-3.81-4.62a3.21 3.21 0 0 0-2.89 1.6h-.03v-1.5H47v12.04h1.86v-4.48h.04a3.07 3.07 0 0 0 2.85 1.58Zm-.52-7.65c1.44 0 2.39 1.2 2.39 3.03 0 1.85-.95 3.05-2.4 3.05-1.41 0-2.37-1.22-2.37-3.05 0-1.8.96-3.04 2.38-3.04Z" fill="#fff"/><path d="M61.9 19.16c.14 1.24 1.34 2.04 2.97 2.04 1.57 0 2.7-.8 2.7-1.91 0-.97-.69-1.55-2.3-1.94l-1.6-.39c-2.28-.55-3.34-1.62-3.34-3.35 0-2.14 1.86-3.61 4.51-3.61 2.63 0 4.43 1.47 4.49 3.61h-1.88c-.1-1.24-1.13-1.98-2.63-1.98s-2.52.75-2.52 1.86c0 .87.65 1.39 2.25 1.79l1.37.33c2.55.6 3.6 1.63 3.6 3.44 0 2.33-1.84 3.78-4.79 3.78-2.75 0-4.61-1.42-4.73-3.67h1.9ZM73.18 12v2.14h1.73v1.47h-1.73v5c0 .77.35 1.13 1.1 1.13.21 0 .41-.02.62-.04v1.46c-.34.07-.69.1-1.04.09-1.83 0-2.54-.7-2.54-2.45v-5.19H70v-1.47h1.32V12h1.86Z" fill="#fff"/><path fill-rule="evenodd" clip-rule="evenodd" d="M80.3 14c-2.62 0-4.3 1.79-4.3 4.64 0 2.85 1.66 4.64 4.3 4.64 2.63 0 4.29-1.79 4.29-4.64 0-2.85-1.67-4.64-4.3-4.64Zm0 1.53c1.5 0 2.4 1.15 2.4 3.1 0 1.97-.9 3.11-2.4 3.11-1.51 0-2.4-1.14-2.4-3.1 0-1.95.89-3.1 2.4-3.1Z" fill="#fff"/><path d="M86 14.1h1.77v1.54h.05c.24-1 1.15-1.68 2.17-1.64.22 0 .43.02.64.07v1.74a2.6 2.6 0 0 0-.84-.11 1.87 1.87 0 0 0-1.93 2.08v5.37H86V14.1Z" fill="#fff"/><path fill-rule="evenodd" clip-rule="evenodd" d="M95.27 23.28c2.05 0 3.65-1.13 3.9-2.77H97.4a2.05 2.05 0 0 1-2.09 1.27 2.36 2.36 0 0 1-2.43-2.57v-.1h6.4v-.64c-.01-2.75-1.58-4.47-4.09-4.47-2.55 0-4.19 1.84-4.19 4.68 0 2.83 1.63 4.6 4.27 4.6Zm2.14-5.48h-4.53a2.3 2.3 0 0 1 2.31-2.3 2.18 2.18 0 0 1 2.22 2.3Z" fill="#fff"/><path d="M26.39 3.68h.8a1 1 0 0 0 1.12-.95c0-.55-.41-.9-1.11-.9a1.06 1.06 0 0 0-1.2.93h-.88a1.87 1.87 0 0 1 2.1-1.74c1.18 0 2 .65 2 1.6.01.65-.44 1.22-1.08 1.36v.08c.77.03 1.36.67 1.33 1.44a2 2 0 0 1-2.23 1.77A1.98 1.98 0 0 1 25 5.51h.89c.05.57.58.94 1.35.94.77 0 1.28-.42 1.28-1 0-.6-.48-.96-1.3-.96h-.83v-.8Z" fill="#fff"/><path fill-rule="evenodd" clip-rule="evenodd" d="M32.67 3.97C31.6 4.04 31 4.51 31 5.32a1.36 1.36 0 0 0 1.5 1.34c.55.03 1.06-.24 1.35-.7h.07v.63h.86V3.51c0-.95-.64-1.51-1.77-1.51-1.02 0-1.75.5-1.84 1.27h.86c.1-.32.45-.5.94-.5.61 0 .92.27.92.74v.4l-1.22.06Zm1.22.58v.38a1.06 1.06 0 0 1-1.16.99c-.48 0-.84-.24-.84-.65 0-.4.28-.6.9-.64l1.1-.08Z" fill="#fff"/><path d="M36.89 2.75V6.5H36V2h2.96v.75H36.9Z" fill="#fff"/><path fill-rule="evenodd" clip-rule="evenodd" d="M42.34 6.65c1.14 0 1.87-.9 1.87-2.33C44.2 2.9 43.48 2 42.34 2c-.6-.01-1.14.3-1.42.82h-.06v-.75H40v6h.89V5.9h.07c.27.5.81.8 1.38.75ZM42.1 2.8c.75 0 1.2.57 1.2 1.52 0 .96-.45 1.53-1.2 1.53s-1.22-.58-1.22-1.52c0-.94.47-1.53 1.22-1.53Z" fill="#fff"/><path d="M45.46 8.12v-.77l.29.02c.4.03.74-.24.81-.63l.07-.22L45 2h.97l1.13 3.58h.07L48.29 2h.94l-1.67 4.69c-.39 1.1-.81 1.45-1.73 1.45l-.37-.02ZM50 5.33h.88c.1.4.46.6.98.6.6 0 .96-.26.96-.67 0-.43-.33-.64-.96-.64h-.67v-.69h.66c.54 0 .81-.2.81-.58 0-.33-.26-.58-.8-.58-.5 0-.87.2-.93.56h-.85c.13-.85.92-1.43 1.77-1.32 1.07 0 1.69.49 1.69 1.25a.93.93 0 0 1-.72.92v.07c.51.07.9.5.89 1.01 0 .86-.73 1.43-1.85 1.43-.98 0-1.78-.45-1.86-1.36ZM55 6.5V2h.88v3.1h.07L58.03 2h.88v4.5h-.88V3.4h-.07L55.88 6.5H55ZM63.73 2.75H62.3V6.5h-.9V2.75H60V2h3.73v.75Z" fill="#fff"/><path fill-rule="evenodd" clip-rule="evenodd" d="M67.1 6.68c.88.1 1.7-.46 1.95-1.3h-.86c-.2.38-.63.6-1.07.54a1.19 1.19 0 0 1-1.2-1.29v-.05h3.19v-.31C69.1 2.86 68.35 2 67.1 2a2.08 2.08 0 0 0-2.08 2.35 2.05 2.05 0 0 0 2.08 2.33Zm1.1-2.76h-2.27a1.15 1.15 0 0 1 1.16-1.16 1.09 1.09 0 0 1 1.1 1.16ZM72 2h2.03c.88 0 1.4.45 1.4 1.14 0 .46-.32.86-.76.96v.07c.54.03.97.49.96 1.03 0 .79-.6 1.3-1.58 1.3H72V2Zm.88.68v1.17h.88c.54 0 .8-.2.8-.59 0-.35-.23-.58-.7-.58h-.98Zm0 3.14V4.5h.94c.6 0 .92.21.92.66 0 .43-.28.66-.8.66h-1.06Z" fill="#fff"/></symbol><symbol id="icon_ok" viewBox="0 0 10 18"><path fill-rule="evenodd" clip-rule="evenodd" d="M5 8.91A4.46 4.46 0 1 0 4.99 0 4.46 4.46 0 0 0 5 8.91Zm0-6.3a1.85 1.85 0 1 1 0 3.7 1.85 1.85 0 0 1 0-3.7Zm4.39 8.87c-.8.5-1.67.86-2.59 1.07l2.5 2.5a1.3 1.3 0 1 1-1.85 1.84L5 14.44 2.55 16.9a1.3 1.3 0 1 1-1.84-1.85l2.49-2.49c-.92-.2-1.8-.57-2.59-1.07a1.3 1.3 0 0 1 1.4-2.21 5.66 5.66 0 0 0 5.99 0 1.3 1.3 0 1 1 1.39 2.2Z" fill="#fff"/></symbol><symbol id="icon_vk" viewBox="0 0 16 10"><path fill-rule="evenodd" clip-rule="evenodd" d="M15.63.63c.11-.36 0-.63-.53-.63h-1.75c-.44 0-.65.23-.76.48 0 0-.89 2.12-2.15 3.5-.4.39-.6.52-.82.52-.1 0-.27-.13-.27-.5V.64c0-.44-.13-.63-.5-.63H6.1c-.28 0-.44.2-.44.4 0 .4.63.5.7 1.66v2.5c0 .56-.11.66-.33.66-.6 0-2.04-2.13-2.9-4.56C2.97.2 2.8 0 2.35 0H.6C.1 0 0 .23 0 .48c0 .45.6 2.7 2.76 5.66C4.21 8.17 6.25 9.26 8.1 9.26c1.11 0 1.25-.24 1.25-.66V7.07c0-.49.1-.59.46-.59.26 0 .7.13 1.74 1.1 1.19 1.16 1.39 1.68 2.05 1.68h1.75c.5 0 .75-.24.61-.72a7.33 7.33 0 0 0-1.48-2c-.4-.47-1.02-.98-1.2-1.23-.26-.33-.19-.47 0-.76 0 0 2.13-2.93 2.35-3.92Z" fill="#fff"/></symbol></svg>